<?xml version="1.0" encoding="UTF-8"?>
<svg width="102px" height="35px" viewBox="0 0 102 35" version="1.1" xmlns="http://www.w3.org/2000/svg" xmlns:xlink="http://www.w3.org/1999/xlink">
    <!-- Generator: Sketch 49.1 (51147) - http://www.bohemiancoding.com/sketch -->
    <title>Logo@2x</title>
    <desc>Created with Sketch.</desc>
    <defs></defs>
    <g id="Page-1" stroke="none" stroke-width="1" fill="none" fill-rule="evenodd">
        <g id="Home" transform="translate(-118.000000, -34.000000)" fill="#FFFFFF">
            <g id="Logo" transform="translate(118.000000, 34.000000)">
                <path d="M5.99929397,26.8068331 C3.80839201,26.8068331 2.14454665,28.3806051 2.14454665,30.4720651 C2.14454665,32.573879 3.77738868,34.1787122 5.93728731,34.1787122 C6.99140052,34.1787122 8.09718595,33.6713778 8.86193475,32.8844919 L7.90083153,31.8387618 C7.38410937,32.35645 6.67103278,32.6877704 6.01996286,32.6877704 C4.77982967,32.6877704 3.81872645,31.7145167 3.81872645,30.4513576 C3.81872645,29.1881986 4.77982967,28.2252986 6.01996286,28.2252986 C6.69170167,28.2252986 7.40477825,28.5980341 7.90083153,29.167491 L8.8516003,28.0078696 C8.13852372,27.2727524 7.04307274,26.8068331 5.99929397,26.8068331 Z M15.8303734,26.8068331 C18.0419443,26.8068331 19.7161241,28.3806051 19.7161241,30.4824189 C19.7161241,32.573879 18.0419443,34.1787122 15.8303734,34.1787122 C13.6188026,34.1787122 11.9446228,32.5842328 11.9446228,30.4824189 C11.9446228,28.3702513 13.6188026,26.8068331 15.8303734,26.8068331 Z M15.8510423,28.2356524 C14.631578,28.2356524 13.6188026,29.2089061 13.6188026,30.4824189 C13.6188026,31.7559317 14.6419124,32.749893 15.8510423,32.749893 C17.0601722,32.749893 18.0419443,31.7559317 18.0419443,30.4824189 C18.0419443,29.2089061 17.0601722,28.2356524 15.8510423,28.2356524 Z M28.7514514,28.2149449 L28.7617858,26.8586019 L23.5635609,26.8586019 L23.5635609,34.1062359 L25.1964029,34.1062359 L25.1964029,31.3624887 L28.462087,31.3624887 L28.462087,29.9957921 L25.1964029,29.9957921 L25.1964029,28.2149449 L28.7514514,28.2149449 Z M37.6730998,28.2149449 L37.6834343,26.8586019 L32.4852093,26.8586019 L32.4852093,34.1062359 L34.1180514,34.1062359 L34.1180514,31.3624887 L37.3837354,31.3624887 L37.3837354,29.9957921 L34.1180514,29.9957921 L34.1180514,28.2149449 L37.6730998,28.2149449 Z M46.915116,28.2149449 L46.915116,26.8586019 L41.4068578,26.8586019 L41.4068578,34.1062359 L47.0287949,34.1062359 L47.0287949,32.749893 L43.0396998,32.749893 L43.0396998,31.1450597 L46.5327416,31.1450597 L46.5327416,29.7887168 L43.0396998,29.7887168 L43.0396998,28.2149449 L46.915116,28.2149449 Z M56.5911788,28.2149449 L56.5911788,26.8586019 L51.0829206,26.8586019 L51.0829206,34.1062359 L56.7048577,34.1062359 L56.7048577,32.749893 L52.7157626,32.749893 L52.7157626,31.1450597 L56.2088044,31.1450597 L56.2088044,29.7887168 L52.7157626,29.7887168 L52.7157626,28.2149449 L56.5911788,28.2149449 Z M69.3602641,26.8068331 C67.1693621,26.8068331 65.5055167,28.3806051 65.5055167,30.4720651 C65.5055167,32.573879 67.1383588,34.1787122 69.2982574,34.1787122 C70.3523706,34.1787122 71.458156,33.6713778 72.2229048,32.8844919 L71.2618016,31.8387618 C70.7450795,32.35645 70.0320029,32.6877704 69.380933,32.6877704 C68.1407998,32.6877704 67.1796965,31.7145167 67.1796965,30.4513576 C67.1796965,29.1881986 68.1407998,28.2252986 69.380933,28.2252986 C70.0526718,28.2252986 70.7657483,28.5980341 71.2618016,29.167491 L72.2125704,28.0078696 C71.4994938,27.2727524 70.4040428,26.8068331 69.3602641,26.8068331 Z M77.5998393,32.6774166 L77.5998393,26.8586019 L75.9669972,26.8586019 L75.9669972,34.1062359 L80.7001722,34.1062359 L80.7001722,32.6774166 L77.5998393,32.6774166 Z M90.2826664,26.8586019 L88.6498244,26.8586019 L88.6498244,31.0725834 C88.6498244,32.1183134 88.0090889,32.749893 87.0376512,32.749893 C86.0662136,32.749893 85.3841403,32.1183134 85.3841403,31.0725834 L85.3841403,26.8586019 L83.7512983,26.8586019 L83.7512983,31.0725834 C83.7512983,32.9880295 85.0327693,34.1787122 87.0376512,34.1787122 C89.0321988,34.1787122 90.2826664,32.9880295 90.2826664,31.0725834 L90.2826664,26.8586019 Z M93.9538591,26.8586019 L97.2815498,26.8586019 C98.8730541,26.8586019 99.8651606,27.552304 99.8651606,28.6705104 C99.8651606,29.4573964 99.3897762,30.0682684 98.614693,30.2649899 C99.5447929,30.4410039 100.123522,31.1450597 100.123522,32.0976059 C100.123522,33.3400574 99.0797429,34.1062359 97.3952287,34.1062359 L93.9538591,34.1062359 L93.9538591,26.8586019 Z M95.5867011,28.1942373 L95.5867011,29.778363 L97.1988742,29.778363 C97.8086064,29.778363 98.1909808,29.4781039 98.1909808,28.9707695 C98.1909808,28.4737889 97.8086064,28.1942373 97.1988742,28.1942373 L95.5867011,28.1942373 Z M95.5867011,31.0415221 L95.5867011,32.7706005 L97.1988742,32.7706005 C97.9739575,32.7706005 98.4390074,32.4496338 98.4390074,31.8905306 C98.4390074,31.3624887 97.9739575,31.0415221 97.1988742,31.0415221 L95.5867011,31.0415221 Z" id="COFFEE-CLUB"></path>
                <path d="M33.9405869,20.9093298 C36.232738,20.9093298 38.0840909,20.2242663 39.4652589,18.8839247 C40.8758135,17.5137976 41.5810908,15.6075339 41.5810908,13.1353482 L41.5810908,0.625492773 C41.5810908,0.416995182 41.4929311,0.327639071 41.2872252,0.327639071 L37.5551329,0.327639071 C37.3494271,0.327639071 37.2612674,0.416995182 37.2612674,0.625492773 L37.2612674,13.2544897 C37.2612674,15.6373193 35.9682591,17.0372317 33.9405869,17.0372317 C31.9129147,17.0372317 30.5905198,15.6373193 30.5905198,13.2544897 L30.5905198,0.625492773 C30.5905198,0.416995182 30.5023601,0.327639071 30.2966543,0.327639071 L26.564562,0.327639071 C26.3588561,0.327639071 26.2706965,0.416995182 26.2706965,0.625492773 L26.2706965,13.1353482 C26.2706965,15.6075339 26.9759737,17.5137976 28.3571417,18.8839247 C29.7676963,20.2242663 31.6190492,20.9093298 33.9405869,20.9093298 Z M48.2331735,20.2838371 C48.2331735,20.4923346 48.3213331,20.5816908 48.527039,20.5816908 L61.3395763,20.5816908 C61.5452822,20.5816908 61.6334418,20.4923346 61.6334418,20.2838371 L61.6334418,17.0968025 C61.6334418,16.8883049 61.5452822,16.7989488 61.3395763,16.7989488 L52.7293162,16.7989488 C52.6117699,16.7989488 52.5529968,16.739378 52.5529968,16.6202365 L52.5529968,12.4204993 C52.5529968,12.3013579 52.6117699,12.2417871 52.7293162,12.2417871 L59.8996352,12.2417871 C60.105341,12.2417871 60.1935007,12.152431 60.1935007,11.9439334 L60.1935007,8.78668419 C60.1935007,8.5781866 60.105341,8.48883049 59.8996352,8.48883049 L52.7293162,8.48883049 C52.6117699,8.48883049 52.5529968,8.42925975 52.5529968,8.31011827 L52.5529968,4.2890933 C52.5529968,4.16995182 52.6117699,4.11038108 52.7293162,4.11038108 L61.3395763,4.11038108 C61.5452822,4.11038108 61.6334418,4.02102497 61.6334418,3.81252738 L61.6334418,0.625492773 C61.6334418,0.416995182 61.5452822,0.327639071 61.3395763,0.327639071 L48.527039,0.327639071 C48.3213331,0.327639071 48.2331735,0.416995182 48.2331735,0.625492773 L48.2331735,20.2838371 Z M74.6092339,20.9093298 C79.6343346,20.9093298 82.4554437,18.347788 82.4554437,14.5352606 C82.4554437,11.0205869 80.3689984,8.96539641 76.1667213,8.39947438 L75.1088053,8.25054753 C72.8754273,7.92290845 71.9938307,7.20805957 71.9938307,6.01664477 C71.9938307,4.70608848 72.9342004,3.81252738 74.668007,3.81252738 C76.1961078,3.81252738 77.7535951,4.31887867 79.3110825,5.36136662 C79.4580152,5.45072273 79.604948,5.42093736 79.7224942,5.27201051 L81.515074,2.56154183 C81.6620067,2.38282961 81.6326202,2.23390276 81.4563009,2.11476128 C79.6637211,0.714848883 77.4009565,0 74.668007,0 C72.5227886,0 70.788982,0.565922032 69.4959736,1.6977661 C68.2323519,2.82961016 67.5858477,4.31887867 67.5858477,6.19535699 C67.5858477,9.65045992 69.7016795,11.6758651 73.9039566,12.2715725 L74.9618726,12.4204993 C77.2246372,12.7481384 78.0474607,13.4034166 78.0474607,14.6841875 C78.0474607,16.1436706 76.8132254,17.0968025 74.7855532,17.0968025 C73.02236,17.0968025 71.2885534,16.4117389 69.5547468,15.0118265 C69.3784274,14.8628997 69.2314947,14.8926851 69.1139485,15.0416119 L66.8805704,17.6329391 C66.7336376,17.8116513 66.7630242,17.9903636 66.9099569,18.1392904 C67.7033939,18.9434954 68.8200829,19.5987735 70.2306375,20.1349102 C71.641192,20.6412615 73.1105197,20.9093298 74.6092339,20.9093298 Z M96.1814624,20.5816908 C96.3871683,20.5816908 96.475328,20.4923346 96.475328,20.2838371 L96.475328,4.40823478 C96.475328,4.2890933 96.5341011,4.22952256 96.6516473,4.22952256 L101.706134,4.22952256 C101.91184,4.22952256 102,4.14016645 102,3.93166886 L102,0.625492773 C102,0.416995182 101.91184,0.327639071 101.706134,0.327639071 L86.9246981,0.327639071 C86.7189923,0.327639071 86.6308326,0.416995182 86.6308326,0.625492773 L86.6308326,3.93166886 C86.6308326,4.14016645 86.7189923,4.22952256 86.9246981,4.22952256 L91.9791853,4.22952256 C92.0967315,4.22952256 92.1555046,4.2890933 92.1555046,4.40823478 L92.1555046,20.2838371 C92.1555046,20.4923346 92.2436643,20.5816908 92.4493702,20.5816908 L96.1814624,20.5816908 Z" id="UEST"></path>
                <path d="M18.308554,15.9125658 L21.1181627,18.7221744 C21.508687,19.1126987 21.508687,19.7458637 21.1181627,20.136388 L19.6002671,21.6542835 C19.2097428,22.0448078 18.5765779,22.0448078 18.1860536,21.6542835 L15.3749134,18.8431433 C13.8174044,19.8560835 11.9609669,20.4441401 9.96790947,20.4441401 C4.46278508,20.4441401 0,15.9575771 0,10.4231213 C0,4.88866543 4.46278508,0.402102497 9.96790947,0.402102497 C15.4730339,0.402102497 19.9358189,4.88866543 19.9358189,10.4231213 C19.9358189,12.4497249 19.337416,14.3358193 18.308554,15.9125658 Z M9.96790947,16.2975116 C13.1950513,16.2975116 15.8111667,13.6674575 15.8111667,10.4231213 C15.8111667,7.17878509 13.1950513,4.54873096 9.96790947,4.54873096 C6.74076759,4.54873096 4.12465219,7.17878509 4.12465219,10.4231213 C4.12465219,13.6674575 6.74076759,16.2975116 9.96790947,16.2975116 Z" id="Combined-Shape"></path>
            </g>
        </g>
    </g>
</svg>